<svg width="27" height="18" viewBox="0 0 27 18" fill="none" xmlns="http://www.w3.org/2000/svg">
<path d="M17.2126 17.6568C16.7345 17.188 16.7345 16.4099 17.2032 15.9318L22.8938 10.2224L1.20947 10.2224C0.543848 10.2224 9.91821e-05 9.67867 9.91821e-05 9.00367C9.91821e-05 8.32867 0.543848 7.78492 1.20947 7.78492L22.8938 7.78492L17.1938 2.07555C16.7251 1.59742 16.7345 0.828671 17.2032 0.350546C17.6813 -0.118204 18.4407 -0.118206 18.9188 0.359919L26.6438 8.14117C26.747 8.25367 26.8313 8.37554 26.897 8.52554C26.9626 8.67554 26.9907 8.83492 26.9907 8.99429C26.9907 9.31304 26.8688 9.61304 26.6438 9.84742L18.9188 17.6287C18.4595 18.1162 17.6907 18.1255 17.2126 17.6568Z" fill="#737373"/>
</svg>
